Coordinates
version=1
nRows=32
nColumns=38
inDegrees=no

Units are S.I. units (second, meters, Newtons, ...)
If the header above contains a line with 'inDegrees', this indicates whether rotational values are in degrees (yes) or radians (no).

endheader
time	pelvis_tilt	pelvis_list	pelvis_rotation	pelvis_tx	pelvis_ty	pelvis_tz	hip_flexion_r	hip_adduction_r	hip_rotation_r	knee_angle_r	ankle_angle_r	subtalar_angle_r	mtp_angle_r	hip_flexion_l	hip_adduction_l	hip_rotation_l	knee_angle_l	ankle_angle_l	subtalar_angle_l	mtp_angle_l	lumbar_extension	lumbar_bending	lumbar_rotation	arm_flex_r	arm_add_r	arm_rot_r	elbow_flex_r	pro_sup_r	wrist_flex_r	wrist_dev_r	arm_flex_l	arm_add_l	arm_rot_l	elbow_flex_l	pro_sup_l	wrist_flex_l	wrist_dev_l
1.95	0.169756	0.0634433	-0.00948364	0.700556	0.98088	-0.317003	0.221491	-0.0982414	-0.0612052	-1.39474	0.0235099	-0.0146385	-0.0160191	0.0419464	0.157104	0.0351956	-0.702344	0.445784	-0.0220178	-0.0760301	-0.468937	-0.127371	-0.0538818	-0.39566	-0.229734	-0.173016	1.54792	1.36103	-0.0176126	-0.0778727	-0.0198383	-0.311397	0.0343979	1.57747	1.72958	0.0880775	-0.0808981
1.96	0.166242	0.0564155	-0.00670781	0.700145	0.983616	-0.316959	0.249371	-0.0851839	-0.059255	-1.36803	0.0395508	-0.0146385	-0.0160191	0.00611919	0.149154	0.0430727	-0.669538	0.442235	-0.0220178	-0.0760301	-0.465341	-0.117106	-0.0623043	-0.416124	-0.221868	-0.169719	1.53816	1.35337	-0.0176126	-0.0778727	0.00876192	-0.301718	0.0370643	1.59414	1.73169	0.0880775	-0.0808981
1.97	0.160943	0.047962	-0.00443174	0.700069	0.986825	-0.316888	0.275377	-0.0703266	-0.0575166	-1.33133	0.0533978	-0.0146385	-0.0160191	-0.0297978	0.139257	0.0499636	-0.632068	0.431793	-0.0220178	-0.0760301	-0.458926	-0.104909	-0.0691754	-0.438739	-0.214849	-0.168574	1.53367	1.3466	-0.0176126	-0.0778727	0.0321455	-0.291681	0.0384123	1.61618	1.73233	0.0880775	-0.0808981
1.98	0.154089	0.0383148	-0.00270377	0.700313	0.990416	-0.316758	0.298925	-0.0540418	-0.0558683	-1.28462	0.0648723	-0.0146385	-0.0160191	-0.0652588	0.127577	0.0551625	-0.591317	0.414429	-0.0220178	-0.0760301	-0.450043	-0.0912127	-0.0747334	-0.462861	-0.208492	-0.169509	1.53367	1.34111	-0.0176126	-0.0778727	0.0505473	-0.282158	0.0391661	1.64243	1.73158	0.0880775	-0.0808981
1.99	0.145985	0.0277376	-0.00151033	0.700853	0.994306	-0.316539	0.319402	-0.0366792	-0.0540597	-1.22794	0.0738113	-0.0146385	-0.0160191	-0.0997685	0.114338	0.0580213	-0.548756	0.390265	-0.0220178	-0.0760301	-0.439179	-0.0764722	-0.0793176	-0.487743	-0.202617	-0.172219	1.53722	1.33706	-0.0176126	-0.0778727	0.0643341	-0.273927	0.0399817	1.67165	1.72971	0.0880775	-0.0808981
2	0.136996	0.016541	-0.000778687	0.701663	0.998418	-0.316208	0.336224	-0.0185941	-0.0517348	-1.16144	0.080142	-0.0146385	-0.0160191	-0.132889	0.0998588	0.0580671	-0.505863	0.359608	-0.0220178	-0.0760301	-0.426886	-0.0611523	-0.0833083	-0.512624	-0.197072	-0.176247	1.54328	1.33434	-0.0176126	-0.0778727	0.0739712	-0.26759	0.0413898	1.70265	1.72713	0.0880775	-0.0808981
2.01	0.127492	0.00512393	-0.000394638	0.702708	1.00267	-0.315762	0.348896	-0.000190124	-0.0485101	-1.08552	0.0839398	-0.0146385	-0.0160191	-0.164254	0.0845667	0.0551037	-0.464056	0.323006	-0.0220178	-0.0760301	-0.413737	-0.0457056	-0.0870606	-0.53682	-0.191729	-0.181096	1.5509	1.33271	-0.0176126	-0.0778727	0.0800023	-0.263526	0.0437792	1.73433	1.72438	0.0880775	-0.0808981
2.02	0.117822	-0.00608238	-0.000209225	0.703943	1.00695	-0.315217	0.357078	0.0180161	-0.0440905	-1.00094	0.0854608	-0.0146385	-0.0160191	-0.193559	0.0690181	0.049264	-0.424664	0.281293	-0.0220178	-0.0760301	-0.400283	-0.0306053	-0.0908556	-0.559791	-0.186476	-0.186329	1.55933	1.33178	-0.0176126	-0.0778727	0.0830354	-0.261886	0.0474123	1.76567	1.72196	0.0880775	-0.0808981
2.03	0.108313	-0.016604	-6.01698e-05	0.705327	1.01118	-0.314598	0.360644	0.0353931	-0.0383793	-0.908983	0.0851334	-0.0146385	-0.0160191	-0.220538	0.0538647	0.0410205	-0.38894	0.235611	-0.0220178	-0.0760301	-0.387011	-0.0163266	-0.0948696	-0.581158	-0.181211	-0.191625	1.568	1.3312	-0.0176126	-0.0778727	0.0837218	-0.262616	0.0524497	1.79576	1.72032	0.0880775	-0.0808981
2.04	0.0992644	-0.0259429	0.00020873	0.706817	1.01524	-0.313942	0.359737	0.0512155	-0.0315654	-0.811535	0.0835182	-0.0146385	-0.0160191	-0.244939	0.0398091	0.0311323	-0.35808	0.187368	-0.0220178	-0.0760301	-0.374335	-0.00334078	-0.0991677	-0.6007	-0.175835	-0.196807	1.57659	1.33067	-0.0176126	-0.0778727	0.0827248	-0.265507	0.0589756	1.82384	1.7197	0.0880775	-0.0808981
2.05	0.0909375	-0.0336052	0.00072947	0.70837	1.01901	-0.313291	0.35479	0.0647237	-0.0241538	-0.711194	0.0812339	-0.0146385	-0.0160191	-0.266509	0.027543	0.0205429	-0.333227	0.138104	-0.0220178	-0.0760301	-0.362594	0.00790144	-0.103715	-0.618311	-0.170253	-0.201829	1.58493	1.33001	-0.0176126	-0.0778727	0.0806817	-0.270252	0.0670138	1.84926	1.72012	0.0880775	-0.0808981
2.06	0.0835672	-0.0391483	0.0015955	0.709942	1.02239	-0.31269	0.346508	0.0752218	-0.0169219	-0.611201	0.0788574	-0.0146385	-0.0160191	-0.285005	0.0176683	0.0102504	-0.315455	0.0893028	-0.0220178	-0.0760301	-0.352076	0.0170029	-0.108393	-0.633957	-0.164383	-0.206745	1.59302	1.32916	-0.0176126	-0.0778727	0.0781618	-0.276495	0.0765314	1.87159	1.72141	0.0880775	-0.0808981
2.07	0.0773829	-0.0422442	0.00285337	0.711491	1.02526	-0.312184	0.335788	0.082199	-0.0107945	-0.515281	0.0768084	-0.0146385	-0.0160191	-0.300216	0.0106114	0.00116661	-0.305741	0.0421893	-0.0220178	-0.0760301	-0.343046	0.0236696	-0.11302	-0.64763	-0.158176	-0.211667	1.60089	1.32816	-0.0176126	-0.0778727	0.0756274	-0.283862	0.0874311	1.89054	1.7232	0.0880775	-0.0808981
2.08	0.0726295	-0.0427419	0.0045008	0.71298	1.02757	-0.3118	0.323591	0.0854367	-0.00665852	-0.427338	0.0752499	-0.0146385	-0.0160191	-0.311995	0.00654807	-0.00601687	-0.304933	-0.00242257	-0.0220178	-0.0760301	-0.335788	0.0277647	-0.117368	-0.659315	-0.151643	-0.216716	1.60863	1.32708	-0.0176126	-0.0778727	0.0734049	-0.291985	0.0995423	1.90604	1.72504	0.0880775	-0.0808981
2.09	0.0695794	-0.0407129	0.00648913	0.714372	1.02928	-0.311542	0.310798	0.0850756	-0.00514322	-0.351074	0.0740354	-0.0146385	-0.0160191	-0.320293	0.00535475	-0.0109459	-0.313706	-0.0441881	-0.0220178	-0.0760301	-0.330614	0.0293485	-0.121174	-0.668975	-0.144882	-0.221971	1.61634	1.32597	-0.0176126	-0.0778727	0.0716677	-0.300512	0.112619	1.91816	1.72646	0.0880775	-0.0808981
2.1	0.0685222	-0.0364643	0.00873087	0.715632	1.03035	-0.311395	0.298087	0.0816182	-0.00645074	-0.289593	0.0727421	-0.0146385	-0.0160191	-0.325176	0.006594	-0.0136878	-0.332522	-0.0831892	-0.0220178	-0.0760301	-0.327872	0.0286938	-0.124159	-0.676553	-0.1381	-0.227442	1.6241	1.3248	-0.0176126	-0.0778727	0.0704346	-0.309114	0.126351	1.92712	1.72703	0.0880775	-0.0808981
2.11	0.0697219	-0.0305135	0.0111104	0.71672	1.03079	-0.311323	0.285885	0.0758687	-0.0103126	-0.245101	0.070826	-0.0146385	-0.0160191	-0.326819	0.00953517	-0.0147508	-0.361572	-0.11979	-0.0220178	-0.0760301	-0.327898	0.0262747	-0.126044	-0.681979	-0.131614	-0.233048	1.63202	1.32347	-0.0176126	-0.0778727	0.069581	-0.317492	0.140378	1.93319	1.72645	0.0880775	-0.0808981
2.12	0.0733648	-0.0235514	0.0134955	0.717604	1.03059	-0.311278	0.27442	0.0688363	-0.0160953	-0.218744	0.0678823	-0.0146385	-0.0160191	-0.325442	0.0132049	-0.0150188	-0.400745	-0.154418	-0.0220178	-0.0760301	-0.330929	0.0227295	-0.126555	-0.685176	-0.125843	-0.238624	1.64013	1.32185	-0.0176126	-0.0778727	0.0688637	-0.325376	0.154318	1.93671	1.72462	0.0880775	-0.0808981
2.13	0.0794777	-0.0164009	0.0157477	0.718261	1.02973	-0.311199	0.26382	0.0616333	-0.0230063	-0.210578	0.0639378	-0.0146385	-0.0160191	-0.321237	0.016462	-0.0155994	-0.449607	-0.187298	-0.0220178	-0.0760301	-0.337018	0.0188116	-0.125436	-0.686049	-0.121269	-0.243926	1.64842	1.31984	-0.0176126	-0.0778727	0.0679576	-0.332523	0.167775	1.93796	1.72165	0.0880775	-0.0808981
2.14	0.0878616	-0.00995868	0.0177318	0.718663	1.02811	-0.311028	0.254229	0.0553879	-0.0303022	-0.219648	0.0596595	-0.0146385	-0.0160191	-0.314282	0.0180932	-0.0176	-0.507415	-0.218204	-0.0220178	-0.0760301	-0.34596	0.0153382	-0.122455	-0.684469	-0.118402	-0.248656	1.65678	1.31739	-0.0176126	-0.0778727	0.0665016	-0.338708	0.180355	1.93712	1.71783	0.0880775	-0.0808981
2.15	0.0980573	-0.00513262	0.0193294	0.718804	1.02568	-0.310716	0.24589	0.05117	-0.037395	-0.24416	0.0563917	-0.0146385	-0.0160191	-0.304468	0.0169413	-0.0218841	-0.573158	-0.246283	-0.0220178	-0.0760301	-0.357263	0.013123	-0.117421	-0.68024	-0.117729	-0.252477	1.66491	1.3146	-0.0176126	-0.0778727	0.0641442	-0.343726	0.191666	1.9342	1.71356	0.0880775	-0.0808981
2.16	0.109375	-0.00275761	0.0204604	0.718665	1.02245	-0.310232	0.239167	0.0499205	-0.0438459	-0.281717	0.0559852	-0.0146385	-0.0160191	-0.291485	0.0120584	-0.0288537	-0.645615	-0.270039	-0.0220178	-0.0760301	-0.370181	0.0129003	-0.110216	-0.673078	-0.119668	-0.25504	1.67237	1.31172	-0.0176126	-0.0778727	0.0605834	-0.347376	0.201312	1.92897	1.70939	0.0880775	-0.0808981
2.17	0.120972	-0.00348803	0.0210929	0.718246	1.01843	-0.309567	0.234461	0.0523675	-0.0493165	-0.329555	0.0604297	-0.0146385	-0.0160191	-0.274879	0.00286123	-0.0383006	-0.723408	-0.287549	-0.0220178	-0.0760301	-0.383818	0.0152488	-0.100835	-0.662609	-0.124526	-0.256009	1.67853	1.30919	-0.0176126	-0.0778727	0.0555993	-0.349469	0.208904	1.92097	1.70593	0.0880775	-0.0808981
2.18	0.13203	-0.00769643	0.0212587	0.717571	1.01376	-0.30874	0.232042	0.0589248	-0.0535545	-0.384688	0.0713603	-0.0146385	-0.0160191	-0.254153	-0.0107277	-0.0493744	-0.805017	-0.296897	-0.0220178	-0.0760301	-0.397258	0.0205094	-0.0894194	-0.648405	-0.132463	-0.255097	1.68267	1.30757	-0.0176126	-0.0778727	0.0490748	-0.349823	0.21407	1.90949	1.70386	0.0880775	-0.0808981
2.19	0.141837	-0.0154113	0.021062	0.716659	1.00869	-0.307785	0.231831	0.0695797	-0.0564318	-0.44399	0.089586	-0.0146385	-0.0160191	-0.228941	-0.0281839	-0.0606987	-0.88877	-0.296716	-0.0220178	-0.0760301	-0.409741	0.0287013	-0.0762716	-0.630049	-0.143458	-0.252113	1.68402	1.30743	-0.0176126	-0.0778727	0.0410067	-0.348273	0.216496	1.89367	1.70381	0.0880775	-0.0808981
2.2	0.149923	-0.0262296	0.0206541	0.715499	1.00348	-0.306752	0.233268	0.0838229	-0.057993	-0.504261	0.114824	-0.0146385	-0.0160191	-0.199134	-0.0483923	-0.0706357	-0.972836	-0.286654	-0.0220178	-0.0760301	-0.420761	0.0394938	-0.0618341	-0.607242	-0.157299	-0.247008	1.68195	1.30928	-0.0176126	-0.0778727	0.0315019	-0.344688	0.21597	1.8726	1.70628	0.0880775	-0.0808981
2.21	0.156112	-0.0393321	0.0201975	0.714072	0.998342	-0.305712	0.235327	0.100646	-0.0584467	-0.562379	0.145763	-0.0146385	-0.0160191	-0.164965	-0.069764	-0.0776448	-1.05524	-0.267588	-0.0220178	-0.0760301	-0.430109	0.0522072	-0.046638	-0.57992	-0.173588	-0.239905	1.67609	1.31338	-0.0176126	-0.0778727	0.0207536	-0.338989	0.212414	1.84549	1.71153	0.0880775	-0.0808981
2.22	0.160475	-0.0535587	0.0198168	0.712383	0.993433	-0.304746	0.236674	0.118652	-0.0580824	-0.615556	0.180419	-0.0146385	-0.0160191	-0.127022	-0.0904639	-0.0806323	-1.13394	-0.24149	-0.0220178	-0.0760301	-0.437857	0.0658821	-0.0312256	-0.548354	-0.191772	-0.231119	1.66651	1.31966	-0.0176126	-0.0778727	0.00899246	-0.331173	0.205892	1.81191	1.71955	0.0880775	-0.0808981
2.23	0.163298	-0.0676088	0.0195687	0.710477	0.988902	-0.303928	0.235924	0.136264	-0.0571538	-0.661581	0.216607	-0.0146385	-0.0160191	-0.0861743	-0.108691	-0.0791815	-1.20693	-0.211015	-0.0220178	-0.0760301	-0.444254	0.0793873	-0.0160603	-0.513212	-0.21119	-0.221138	1.65379	1.32763	-0.0176126	-0.0778727	-0.00358476	-0.321345	0.196588	1.77196	1.72994	0.0880775	-0.0808981
2.24	0.164993	-0.0802337	0.019399	0.708423	0.984924	-0.303296	0.23187	0.151977	-0.0557416	-0.698988	0.252332	-0.0146385	-0.0160191	-0.0434748	-0.122944	-0.0736201	-1.27239	-0.178944	-0.0220178	-0.0760301	-0.449617	0.0915533	-0.00145749	-0.475539	-0.231132	-0.21057	1.63905	1.33643	-0.0176126	-0.0778727	-0.0169049	-0.309752	0.184757	1.72645	1.74198	0.0880775	-0.0808981
2.25	0.165936	-0.0903883	0.0191402	0.706297	0.981659	-0.302843	0.223667	0.164598	-0.0537205	-0.72706	0.286004	-0.0146385	-0.0160191	-2.06194e-05	-0.132229	-0.0649007	-1.32879	-0.147665	-0.0220178	-0.0760301	-0.454218	0.10133	0.0124508	-0.436674	-0.250901	-0.200084	1.62379	1.34492	-0.0176126	-0.0778727	-0.0311053	-0.296801	0.170661	1.67703	1.75466	0.0880775	-0.0808981
2.26	0.166373	-0.0973587	0.0185379	0.704183	0.97922	-0.302539	0.210914	0.173382	-0.050823	-0.745704	0.316488	-0.0146385	-0.0160191	0.0431906	-0.136135	-0.0543486	-1.37497	-0.118837	-0.0220178	-0.0760301	-0.458175	0.1079	0.0256887	-0.398112	-0.269859	-0.190342	1.60974	1.35197	-0.0176126	-0.0778727	-0.0465798	-0.283062	0.154534	1.6261	1.7668	0.0880775	-0.0808981
